<svg width="24" height="24" viewBox="0 0 24 24" fill="none" xmlns="http://www.w3.org/2000/svg">
<path fill-rule="evenodd" clip-rule="evenodd" d="M13.1332 2.30425C12.3917 2.09911 11.6084 2.09911 10.8668 2.30425C10.4834 2.41032 10.0909 2.60782 9.55706 2.97423C9.01543 3.346 8.37127 3.86073 7.47098 4.58097L5.47098 6.18097C4.33583 7.08909 3.88235 7.45996 3.559 7.90602C3.26019 8.31823 3.03787 8.78079 2.90265 9.27163C2.75633 9.80277 2.75002 10.3886 2.75002 11.8423V13.9973C2.75002 15.4098 2.7506 16.424 2.81565 17.2202C2.87998 18.0076 3.00361 18.5153 3.21324 18.9267C3.6207 19.7264 4.27087 20.3766 5.07056 20.784C5.48199 20.9937 5.98972 21.1173 6.7771 21.1816C7.19817 21.216 7.68027 21.2324 8.25002 21.2402V14.972C8.25001 14.5275 8.25001 14.1565 8.27079 13.8519C8.29243 13.5348 8.33907 13.2353 8.45935 12.9449C8.73846 12.2711 9.27381 11.7357 9.94764 11.4566C10.238 11.3363 10.5376 11.2897 10.8547 11.268C11.1593 11.2473 11.5303 11.2473 11.9748 11.2473H12.0253C12.4697 11.2473 12.8408 11.2473 13.1454 11.268C13.4625 11.2897 13.762 11.3363 14.0524 11.4566C14.7262 11.7357 15.2616 12.2711 15.5407 12.9449C15.661 13.2353 15.7076 13.5348 15.7292 13.8519C15.75 14.1565 15.75 14.5275 15.75 14.972V21.2402C16.3198 21.2324 16.8019 21.216 17.2229 21.1816C18.0103 21.1173 18.5181 20.9937 18.9295 20.784C19.7292 20.3766 20.3793 19.7264 20.7868 18.9267C20.9964 18.5153 21.1201 18.0076 21.1844 17.2202C21.2494 16.424 21.25 15.4098 21.25 13.9973V11.8423C21.25 10.3886 21.2437 9.80277 21.0974 9.27163C20.9622 8.78079 20.7398 8.31823 20.441 7.90602C20.1177 7.45996 19.6642 7.08909 18.5291 6.18096L16.5291 4.58097C15.6288 3.86073 14.9846 3.346 14.443 2.97423C13.9092 2.60782 13.5166 2.41032 13.1332 2.30425ZM15.0434 22.746C15.9494 22.7425 16.7051 22.7289 17.3451 22.6767C18.2252 22.6047 18.9523 22.4559 19.6105 22.1206C20.6924 21.5693 21.572 20.6896 22.1233 19.6077C22.4586 18.9496 22.6075 18.2225 22.6794 17.3423C22.75 16.478 22.75 15.4026 22.75 14.0308V11.8423C22.75 11.8035 22.75 11.7651 22.75 11.7271C22.7502 10.4252 22.7503 9.6239 22.5435 8.87324C22.3606 8.20916 22.0598 7.58335 21.6555 7.02565C21.1985 6.39524 20.5727 5.89474 19.556 5.08157C19.5264 5.05787 19.4964 5.0339 19.4661 5.00966L17.4432 3.39134C16.5708 2.69342 15.8841 2.14405 15.2918 1.73753C14.6866 1.32211 14.1388 1.02609 13.5332 0.858549C12.5299 0.581004 11.4701 0.581004 10.4669 0.858549C9.86129 1.02609 9.31342 1.32211 8.70819 1.73753C8.11594 2.14405 7.42925 2.69341 6.55686 3.39133L4.53394 5.00966C4.50363 5.03391 4.47367 5.05787 4.44404 5.08157C3.4273 5.89474 2.80151 6.39524 2.34453 7.02565C1.94025 7.58335 1.63947 8.20916 1.45653 8.87324C1.24973 9.6239 1.24984 10.4252 1.25001 11.7271C1.25001 11.7651 1.25002 11.8035 1.25002 11.8423L1.25002 14.0308C1.25002 15.4025 1.25001 16.478 1.32063 17.3423C1.39254 18.2225 1.5414 18.9496 1.87673 19.6077C2.428 20.6896 3.30764 21.5693 4.38957 22.1206C5.0477 22.4559 5.77481 22.6047 6.65496 22.6767C7.29494 22.7289 8.05065 22.7425 8.95667 22.746C8.97101 22.7469 8.98547 22.7473 9.00002 22.7473C9.01275 22.7473 9.0254 22.747 9.03798 22.7463C9.33151 22.7473 9.64062 22.7473 9.96644 22.7473H14.0336C14.3594 22.7473 14.6685 22.7473 14.9621 22.7463C14.9746 22.747 14.9873 22.7473 15 22.7473C15.0146 22.7473 15.029 22.7469 15.0434 22.746ZM14.25 21.2472V14.9973C14.25 14.5211 14.2496 14.2015 14.2327 13.954C14.2163 13.7133 14.1868 13.5961 14.1549 13.5189C14.028 13.2126 13.7847 12.9693 13.4784 12.8424C13.4012 12.8105 13.284 12.781 13.0433 12.7646C12.7958 12.7477 12.4762 12.7473 12 12.7473C11.5238 12.7473 11.2042 12.7477 10.9568 12.7646C10.716 12.781 10.5988 12.8105 10.5217 12.8424C10.2154 12.9693 9.97204 13.2126 9.84517 13.5189C9.81321 13.5961 9.78374 13.7133 9.76731 13.954C9.75043 14.2015 9.75002 14.5211 9.75002 14.9973V21.2472C9.83195 21.2473 9.91527 21.2473 10 21.2473H14C14.0848 21.2473 14.1681 21.2473 14.25 21.2472Z" fill="#62748E"/>
</svg>
